<svg width="53" height="53" viewBox="0 0 53 53" fill="none" xmlns="http://www.w3.org/2000/svg">
<g clip-path="url(#clip0_2545_4953)">
<path d="M26.4995 -0.00390625C23.1806 -0.00390625 20.1597 1.34925 17.9818 3.52755L19.6802 5.22622C21.4254 3.48071 23.832 2.40765 26.4995 2.40765C29.1671 2.40765 31.5642 3.48071 33.3094 5.22622L35.0078 3.52755C32.8299 1.34925 29.8184 -0.00390529 26.4995 -0.00390625ZM26.4995 4.81684C24.5836 4.81713 22.7402 5.57677 21.3856 6.93195L23.0934 8.63062C23.997 7.72663 25.2214 7.22624 26.4995 7.22604C27.7776 7.22624 28.9997 7.72663 29.9033 8.63062L31.6017 6.93195C30.247 5.57677 28.4155 4.81713 26.4995 4.81684ZM26.4995 9.63524C25.1835 9.63524 24.0884 10.7305 24.0884 12.0468C24.0884 13.3631 25.1835 14.456 26.4995 14.456C27.8156 14.456 28.9083 13.3631 28.9083 12.0468C28.9083 10.7305 27.8156 9.63524 26.4995 9.63524ZM3.61394 10.8351C1.63309 10.8351 -0.00390625 12.4748 -0.00390625 14.456C-0.00390625 16.4372 1.63309 18.0651 3.61394 18.0651H4.81361V24.0857C4.81301 24.2447 4.84387 24.4022 4.90442 24.5492C4.96496 24.6962 5.05399 24.8298 5.16639 24.9422C5.27878 25.0546 5.41233 25.1437 5.5593 25.2042C5.70626 25.2648 5.86375 25.2956 6.0227 25.295H10.5838C11.2485 26.0259 12.1967 26.4949 13.2513 26.4949H14.451V36.1341H10.8426C10.5232 36.1329 10.2163 36.2586 9.9896 36.4836C9.76287 36.7086 9.63476 37.0145 9.63349 37.334V45.7732H8.43381C6.45297 45.7732 4.81361 47.4035 4.81361 49.3847C4.81361 51.3659 6.45297 52.9938 8.43381 52.9938H13.2513C15.2322 52.9938 16.8621 51.3659 16.8621 49.3847C16.8621 47.4035 15.2322 45.7732 13.2513 45.7732H12.0422V38.5456H14.6792C15.1825 39.9383 16.5066 40.9548 18.0618 40.9548H34.9278C36.483 40.9548 37.8072 39.9383 38.3104 38.5456H40.945V45.7732H39.7453C37.7645 45.7732 36.1275 47.4035 36.1275 49.3847C36.1275 51.3659 37.7645 52.9938 39.7453 52.9938H44.5652C46.5461 52.9938 48.1737 51.3659 48.1737 49.3847C48.1737 47.4035 46.5461 45.7732 44.5652 45.7732H43.3561V37.334C43.3549 37.0157 43.2277 36.7109 43.0025 36.4861C42.7773 36.2613 42.4723 36.1347 42.1541 36.1341H38.5363V26.4949H39.7453C40.8 26.4949 41.7458 26.0259 42.4082 25.295H46.974C47.2934 25.2938 47.5992 25.1656 47.8242 24.9389C48.0492 24.7121 48.1749 24.4052 48.1737 24.0857V18.0651H49.3827C51.3636 18.0651 52.9935 16.4372 52.9935 14.456C52.9935 12.4748 51.3636 10.8351 49.3827 10.8351H44.5652C42.5844 10.8351 40.945 12.4748 40.945 14.456C40.945 16.4372 42.5844 18.0651 44.5652 18.0651H45.7649V22.8858H43.3561C43.3561 20.9046 41.7262 19.265 39.7453 19.265H13.2513C11.2705 19.265 9.63349 20.9046 9.63349 22.8858H7.22473V18.0651H8.43381C10.4147 18.0651 12.0422 16.4372 12.0422 14.456C12.0422 12.4748 10.4147 10.8351 8.43381 10.8351H3.61394ZM3.61394 13.2467H8.43381C9.12187 13.2467 9.63349 13.7678 9.63349 14.456C9.63349 15.1442 9.12187 15.6559 8.43381 15.6559H3.61394C2.92588 15.6559 2.40485 15.1442 2.40485 14.456C2.40485 13.7678 2.92588 13.2467 3.61394 13.2467ZM44.5652 13.2467H49.3827C50.0708 13.2467 50.5824 13.7678 50.5824 14.456C50.5824 15.1442 50.0708 15.6559 49.3827 15.6559H44.5652C43.8772 15.6559 43.3561 15.1442 43.3561 14.456C43.3561 13.7678 43.8772 13.2467 44.5652 13.2467ZM13.2513 21.6765H39.7453C40.4334 21.6765 40.945 22.1977 40.945 22.8858C40.945 23.574 40.4334 24.0857 39.7453 24.0857H13.2513C12.5633 24.0857 12.0422 23.574 12.0422 22.8858C12.0422 22.1977 12.5633 21.6765 13.2513 21.6765ZM16.8621 26.4949H36.1275V37.334C36.1275 38.0222 35.6159 38.5456 34.9278 38.5456H18.0618C17.3737 38.5456 16.8621 38.0222 16.8621 37.334V26.4949ZM26.4995 28.9041C24.5183 28.9041 22.8793 30.5434 22.8793 32.525C22.8793 34.5066 24.5183 36.1341 26.4995 36.1341C28.4807 36.1341 30.108 34.5066 30.108 32.525C30.108 30.5434 28.4807 28.9041 26.4995 28.9041ZM26.4995 31.3157C27.1789 31.3157 27.6992 31.8454 27.6992 32.525C27.6992 33.2045 27.1789 33.7249 26.4995 33.7249C25.8201 33.7249 25.2904 33.2045 25.2904 32.525C25.2904 31.8454 25.8201 31.3157 26.4995 31.3157ZM8.43381 48.1848H13.2513C13.9394 48.1848 14.451 48.6965 14.451 49.3847C14.451 50.0729 13.9394 50.594 13.2513 50.594H8.43381C7.74575 50.594 7.22473 50.0729 7.22473 49.3847C7.22473 48.6965 7.74575 48.1848 8.43381 48.1848ZM39.7453 48.1848H44.5652C45.2533 48.1848 45.7649 48.6965 45.7649 49.3847C45.7649 50.0729 45.2533 50.594 44.5652 50.594H39.7453C39.0573 50.594 38.5363 50.0729 38.5363 49.3847C38.5363 48.6965 39.0573 48.1848 39.7453 48.1848Z" fill="black"/>
</g>
<defs>
<clipPath id="clip0_2545_4953">
<rect width="53" height="53" fill="white"/>
</clipPath>
</defs>
</svg>
