<svg width="53" height="53" viewBox="0 0 53 53" fill="none" xmlns="http://www.w3.org/2000/svg">
<path d="M26.4995 -0.00372314C23.1806 -0.00372314 20.1597 1.34943 17.9818 3.52773L19.6802 5.2264C21.4254 3.48089 23.832 2.40783 26.4995 2.40783C29.1671 2.40783 31.5642 3.48089 33.3094 5.2264L35.0078 3.52773C32.8299 1.34943 29.8184 -0.00372218 26.4995 -0.00372314ZM26.4995 4.81703C24.5836 4.81732 22.7402 5.57696 21.3856 6.93213L23.0934 8.63081C23.997 7.72681 25.2214 7.22642 26.4995 7.22623C27.7776 7.22642 28.9997 7.72681 29.9033 8.63081L31.6017 6.93213C30.247 5.57696 28.4155 4.81732 26.4995 4.81703ZM26.4995 9.63542C25.1835 9.63543 24.0884 10.7307 24.0884 12.047C24.0884 13.3633 25.1835 14.4562 26.4995 14.4562C27.8156 14.4562 28.9083 13.3633 28.9083 12.047C28.9083 10.7307 27.8156 9.63542 26.4995 9.63542ZM3.61394 10.8353C1.63309 10.8353 -0.00390625 12.475 -0.00390625 14.4562C-0.00390625 16.4374 1.63309 18.0653 3.61394 18.0653H4.81361V24.0859C4.81301 24.2449 4.84387 24.4024 4.90442 24.5494C4.96496 24.6964 5.05399 24.83 5.16639 24.9424C5.27878 25.0548 5.41233 25.1438 5.5593 25.2044C5.70626 25.265 5.86375 25.2958 6.0227 25.2952H10.5838C11.2485 26.0261 12.1967 26.4951 13.2513 26.4951H14.451V36.1343H10.8426C10.5232 36.133 10.2163 36.2588 9.9896 36.4838C9.76286 36.7088 9.63476 37.0147 9.63349 37.3342V45.7734H8.43381C6.45297 45.7734 4.81361 47.4036 4.81361 49.3849C4.81361 51.3661 6.45297 52.9939 8.43381 52.9939H13.2513C15.2322 52.9939 16.8621 51.3661 16.8621 49.3849C16.8621 47.4036 15.2322 45.7734 13.2513 45.7734H12.0422V38.5458H14.6792C15.1825 39.9385 16.5066 40.955 18.0618 40.955H34.9278C36.483 40.955 37.8072 39.9385 38.3104 38.5458H40.945V45.7734H39.7453C37.7645 45.7734 36.1275 47.4036 36.1275 49.3849C36.1275 51.3661 37.7645 52.9939 39.7453 52.9939H44.5652C46.5461 52.9939 48.1737 51.3661 48.1737 49.3849C48.1737 47.4036 46.5461 45.7734 44.5652 45.7734H43.3561V37.3342C43.3549 37.0159 43.2277 36.7111 43.0025 36.4863C42.7773 36.2615 42.4723 36.1349 42.1541 36.1343H38.5363V26.4951H39.7453C40.8 26.4951 41.7458 26.0261 42.4082 25.2952H46.974C47.2934 25.2939 47.5992 25.1658 47.8242 24.939C48.0492 24.7123 48.1749 24.4054 48.1737 24.0859V18.0653H49.3827C51.3636 18.0653 52.9935 16.4374 52.9935 14.4562C52.9935 12.475 51.3636 10.8353 49.3827 10.8353H44.5652C42.5844 10.8353 40.945 12.475 40.945 14.4562C40.945 16.4374 42.5844 18.0653 44.5652 18.0653H45.7649V22.886H43.3561C43.3561 20.9048 41.7262 19.2652 39.7453 19.2652H13.2513C11.2705 19.2652 9.63349 20.9048 9.63349 22.886H7.22473V18.0653H8.43381C10.4147 18.0653 12.0422 16.4374 12.0422 14.4562C12.0422 12.475 10.4147 10.8353 8.43381 10.8353H3.61394ZM3.61394 13.2469H8.43381C9.12187 13.2469 9.63349 13.768 9.63349 14.4562C9.63349 15.1444 9.12187 15.6561 8.43381 15.6561H3.61394C2.92588 15.6561 2.40485 15.1444 2.40485 14.4562C2.40485 13.768 2.92588 13.2469 3.61394 13.2469ZM44.5652 13.2469H49.3827C50.0708 13.2469 50.5824 13.768 50.5824 14.4562C50.5824 15.1444 50.0708 15.6561 49.3827 15.6561H44.5652C43.8772 15.6561 43.3561 15.1444 43.3561 14.4562C43.3561 13.768 43.8772 13.2469 44.5652 13.2469ZM13.2513 21.6767H39.7453C40.4334 21.6767 40.945 22.1978 40.945 22.886C40.945 23.5742 40.4334 24.0859 39.7453 24.0859H13.2513C12.5633 24.0859 12.0422 23.5742 12.0422 22.886C12.0422 22.1978 12.5633 21.6767 13.2513 21.6767ZM16.8621 26.4951H36.1275V37.3342C36.1275 38.0223 35.6159 38.5458 34.9278 38.5458H18.0618C17.3737 38.5458 16.8621 38.0223 16.8621 37.3342V26.4951ZM26.4995 28.9043C24.5183 28.9043 22.8793 30.5436 22.8793 32.5252C22.8793 34.5067 24.5183 36.1343 26.4995 36.1343C28.4807 36.1343 30.1079 34.5067 30.1079 32.5252C30.1079 30.5436 28.4807 28.9043 26.4995 28.9043ZM26.4995 31.3159C27.1789 31.3159 27.6992 31.8456 27.6992 32.5252C27.6992 33.2047 27.1789 33.7251 26.4995 33.7251C25.8201 33.7251 25.2904 33.2047 25.2904 32.5252C25.2904 31.8456 25.8201 31.3159 26.4995 31.3159ZM8.43381 48.185H13.2513C13.9394 48.185 14.451 48.6967 14.451 49.3849C14.451 50.073 13.9394 50.5942 13.2513 50.5942H8.43381C7.74575 50.5942 7.22473 50.073 7.22473 49.3849C7.22473 48.6967 7.74575 48.185 8.43381 48.185ZM39.7453 48.185H44.5652C45.2533 48.185 45.7649 48.6967 45.7649 49.3849C45.7649 50.073 45.2533 50.5942 44.5652 50.5942H39.7453C39.0573 50.5942 38.5363 50.073 38.5363 49.3849C38.5363 48.6967 39.0573 48.185 39.7453 48.185Z" fill="#FCB131"/>
</svg>
