<svg width="18" height="18" viewBox="0 0 18 18" fill="none" xmlns="http://www.w3.org/2000/svg">
<path d="M8.9625 17.925C4.0125 17.925 0 13.9125 0 8.9625C0 4.0125 4.0125 0 8.9625 0C13.9125 0 17.925 4.0125 17.925 8.9625C17.925 13.9125 13.9125 17.925 8.9625 17.925ZM8.9625 0.975002C4.575 0.975002 0.975 4.575 0.975 8.9625C0.975 13.35 4.575 16.95 8.9625 16.95C13.35 16.95 16.95 13.35 16.95 8.9625C16.95 4.575 13.35 0.975002 8.9625 0.975002Z" fill="white"/>
<path d="M8.77656 14.1002L8.10156 13.3877L12.4891 8.9627L8.10156 4.5377L8.77656 3.8252L13.9141 8.9627L8.77656 14.1002Z" fill="white"/>
<path d="M13.1992 9.4875H4.19922V8.4375H13.1992V9.4875Z" fill="white"/>
</svg>
