<svg width="50" height="50" viewBox="0 0 50 50" fill="none" xmlns="http://www.w3.org/2000/svg">
<path fill-rule="evenodd" clip-rule="evenodd" d="M0 0V38.8887H31.0931V36.111H2.77777V2.77777H40.2776V5.7222H43.0554V0H0ZM43.0554 13.8888C43.0554 15.423 41.8118 16.6666 40.2776 16.6666C38.7435 16.6666 37.4999 15.423 37.4999 13.8888C37.4999 12.3547 38.7435 11.1111 40.2776 11.1111C41.8118 11.1111 43.0554 12.3547 43.0554 13.8888ZM45.8332 13.8888C45.8332 16.957 43.3458 19.4444 40.2776 19.4444C37.2094 19.4444 34.7221 16.957 34.7221 13.8888C34.7221 10.8207 37.2094 8.3333 40.2776 8.3333C43.3458 8.3333 45.8332 10.8207 45.8332 13.8888Z" fill="#FCB131"/>
<path fill-rule="evenodd" clip-rule="evenodd" d="M33.4647 21.9855C34.2397 21.2462 35.2697 20.8337 36.3408 20.8337H42.0096C44.0428 20.8337 45.9359 21.5257 47.3946 22.903C48.7982 24.2283 49.5278 25.9266 49.8266 27.5362C50.2961 30.0665 49.8095 32.8324 48.6141 35.2831V46.5281C48.6141 48.3348 47.2288 49.8395 45.4282 49.9885C43.6278 50.1375 42.0139 48.881 41.7169 47.0989L40.9752 42.6488L40.2335 47.0989C39.9366 48.881 38.3226 50.1375 36.5222 49.9885C34.7218 49.8395 33.3363 48.3348 33.3363 46.5281V38.2006C33.3362 38.1941 33.3362 38.1876 33.3362 38.1809V33.4624C32.7077 33.8252 31.9901 34.0206 31.2529 34.0206H24.1667C21.8655 34.0206 20 32.1552 20 29.854C20 27.5529 21.8655 25.6873 24.1667 25.6873H29.5843L33.4647 21.9855ZM36.114 38.1612C36.1141 38.1677 36.1141 38.1742 36.1141 38.1809V46.5281C36.1141 46.8895 36.3912 47.1903 36.7513 47.2202C37.1113 47.25 37.4341 46.9986 37.4935 46.6423L38.9419 37.9526C39.0534 37.2828 39.6328 36.792 40.3119 36.792H41.6387C42.3176 36.792 42.897 37.2828 43.0087 37.9526L44.4569 46.6423C44.5163 46.9986 44.8391 47.25 45.1992 47.2202C45.5592 47.1903 45.8363 46.8895 45.8363 46.5281V34.9538C45.8363 34.7316 45.8896 34.5126 45.992 34.3151C47.0645 32.2444 47.4542 29.9763 47.0955 28.0432C46.8775 26.869 46.3681 25.7541 45.4875 24.9228C44.5887 24.074 43.397 23.6115 42.0096 23.6115H36.3413C35.9842 23.6115 35.6404 23.749 35.382 23.9954L31.0991 28.0812C30.8408 28.3276 30.4975 28.4651 30.1404 28.4651H24.1667C23.3997 28.4651 22.7778 29.0869 22.7778 29.854C22.7778 30.6211 23.3997 31.2429 24.1667 31.2429H31.2529C31.61 31.2429 31.9533 31.1054 32.2116 30.859L33.7665 29.3757C34.1686 28.992 34.7608 28.8851 35.2718 29.1038C35.7826 29.3226 36.114 29.8248 36.114 30.3807V38.1612Z" fill="#FCB131"/>
</svg>
